<?xml version="1.0" standalone="no"?><!DOCTYPE svg PUBLIC "-//W3C//DTD SVG 1.1//EN" "http://www.w3.org/Graphics/SVG/1.1/DTD/svg11.dtd"><svg t="1614914369624" class="icon" viewBox="0 0 1024 1024" version="1.1" xmlns="http://www.w3.org/2000/svg" p-id="19368" data-spm-anchor-id="a313x.7781069.0.i1" xmlns:xlink="http://www.w3.org/1999/xlink" width="200" height="200"><defs><style type="text/css"></style></defs><path d="M723.750912 603.83232H442.607616c-13.25056 0-23.990272 10.739712-23.990272 23.990272v229.24288a81.559552 81.559552 0 0 0-34.091008-7.44448c-45.254656 0-82.069504 36.814848-82.069504 82.069504S339.27168 1013.76 384.526336 1013.76s82.069504-36.814848 82.069504-82.069504v-159.50848h233.1648v84.883456a81.559552 81.559552 0 0 0-34.091008-7.44448c-45.254656 0-82.069504 36.814848-82.069504 82.069504S620.414976 1013.76 665.669632 1013.76s82.069504-36.814848 82.069504-82.069504V627.822592c0.002048-13.25056-10.737664-23.990272-23.988224-23.990272zM384.528384 965.781504c-18.798592 0-34.091008-15.292416-34.091008-34.091008 0-18.798592 15.292416-34.091008 34.091008-34.091008s34.091008 15.292416 34.091008 34.091008c-0.002048 18.798592-15.292416 34.091008-34.091008 34.091008z m281.141248 0c-18.798592 0-34.091008-15.292416-34.091008-34.091008 0-18.798592 15.292416-34.091008 34.091008-34.091008 18.798592 0 34.091008 15.292416 34.091008 34.091008 0 18.798592-15.290368 34.091008-34.091008 34.091008z" fill="#83E1E5" p-id="19369"></path><path d="M849.117184 257.036288H347.385856c-18.305024 0-33.142784 14.839808-33.142784 33.142784v349.435904c0 43.23328-35.047424 78.282752-78.282752 78.282752h182.657024v-90.075136c0-13.25056 10.739712-23.990272 23.990272-23.990272h281.143296c13.25056 0 23.990272 10.739712 23.990272 23.990272v90.075136h40.298496c43.23328 0 78.282752-35.049472 78.282752-78.282752V274.239488a17.2032 17.2032 0 0 0-17.205248-17.2032z" fill="#FDDF7F" p-id="19370"></path><path d="M754.106368 156.657664H426.094592a48.631808 48.631808 0 0 1-36.749312-16.781312l-20.156416-23.257088a48.62976 48.62976 0 0 0-36.749312-16.781312h-141.6192c-18.305024 0-33.142784 14.839808-33.142784 33.142784V639.61088c0 43.23328 35.047424 78.282752 78.282752 78.282752 43.23328 0 78.282752-35.047424 78.282752-78.282752V290.179072c0-18.305024 14.839808-33.142784 33.142784-33.142784h423.921664V173.860864a17.201152 17.201152 0 0 0-17.201152-17.2032z" fill="#AAB1BA" p-id="19371"></path><path d="M439.658496 33.814528a10.24 10.24 0 0 1 10.24-10.24h13.334528V10.24c0-5.656576 4.583424-10.24 10.24-10.24s10.24 4.583424 10.24 10.24v13.334528h13.334528c5.656576 0 10.24 4.583424 10.24 10.24s-4.583424 10.24-10.24 10.24h-13.334528v13.336576c0 5.656576-4.583424 10.24-10.24 10.24s-10.24-4.583424-10.24-10.24v-13.336576h-13.334528a10.24 10.24 0 0 1-10.24-10.24zM283.109376 800.768h-13.334528v-13.334528c0-5.656576-4.583424-10.24-10.24-10.24s-10.24 4.583424-10.24 10.24V800.768h-13.334528c-5.656576 0-10.24 4.583424-10.24 10.24s4.583424 10.24 10.24 10.24h13.334528v13.334528c0 5.656576 4.583424 10.24 10.24 10.24s10.24-4.583424 10.24-10.24V821.248h13.334528c5.656576 0 10.24-4.583424 10.24-10.24s-4.583424-10.24-10.24-10.24z m568.541184 97.107968h-13.336576v-13.336576c0-5.656576-4.583424-10.24-10.24-10.24s-10.24 4.583424-10.24 10.24v13.336576h-13.334528c-5.656576 0-10.24 4.583424-10.24 10.24s4.583424 10.24 10.24 10.24h13.334528v13.334528c0 5.656576 4.583424 10.24 10.24 10.24s10.24-4.583424 10.24-10.24v-13.334528h13.336576a10.24 10.24 0 1 0 0-20.48zM157.677568 239.616a10.24 10.24 0 0 0 10.24-10.24v-12.288c0-5.656576-4.583424-10.24-10.24-10.24s-10.24 4.583424-10.24 10.24v12.288a10.24 10.24 0 0 0 10.24 10.24z m271.179776 692.074496c0 24.444928-19.88608 44.331008-44.331008 44.331008s-44.331008-19.88608-44.331008-44.331008 19.88608-44.331008 44.331008-44.331008 44.331008 19.88608 44.331008 44.331008z m-20.48 0c0-13.150208-10.7008-23.851008-23.851008-23.851008s-23.851008 10.7008-23.851008 23.851008 10.7008 23.851008 23.851008 23.851008 23.851008-10.7008 23.851008-23.851008z m349.601792-303.867904v303.867904c0 50.900992-41.41056 92.309504-92.309504 92.309504s-92.309504-41.41056-92.309504-92.309504 41.41056-92.309504 92.309504-92.309504c8.138752 0 16.115712 1.050624 23.851008 3.129344v-60.08832H476.83584v149.26848c0 50.900992-41.41056 92.309504-92.309504 92.309504s-92.309504-41.41056-92.309504-92.309504 41.41056-92.309504 92.309504-92.309504c8.138752 0 16.115712 1.050624 23.851008 3.129344V627.822592c0-18.874368 15.355904-34.230272 34.230272-34.230272h281.141248c18.874368 0 34.230272 15.355904 34.230272 34.230272z m-20.48 0a13.766656 13.766656 0 0 0-13.750272-13.750272H442.607616a13.766656 13.766656 0 0 0-13.750272 13.750272V857.06752a10.24 10.24 0 0 1-14.51008 9.306112 71.04512 71.04512 0 0 0-29.820928-6.51264c-39.60832 0-71.829504 32.221184-71.829504 71.829504S344.920064 1003.52 384.528384 1003.52s71.829504-32.221184 71.829504-71.829504v-159.50848a10.24 10.24 0 0 1 10.24-10.24h233.1648a10.24 10.24 0 0 1 10.24 10.24v84.883456a10.24 10.24 0 0 1-14.51008 9.30816 71.038976 71.038976 0 0 0-29.822976-6.514688c-39.60832 0-71.829504 32.221184-71.829504 71.829504S626.061312 1003.52 665.669632 1003.52s71.829504-32.221184 71.829504-71.829504V627.822592z m-27.496448 303.867904c0 24.444928-19.888128 44.331008-44.331008 44.331008s-44.331008-19.88608-44.331008-44.331008 19.88608-44.331008 44.331008-44.331008 44.331008 19.88608 44.331008 44.331008z m-20.48 0c0-13.150208-10.7008-23.851008-23.851008-23.851008-13.150208 0-23.851008 10.7008-23.851008 23.851008s10.7008 23.851008 23.851008 23.851008c13.150208-0.002048 23.851008-10.7008 23.851008-23.851008z m159.594496-684.894208h-67.567616V173.860864c0-15.132672-12.312576-27.441152-27.4432-27.441152H426.094592a38.35904 38.35904 0 0 1-29.00992-13.248512l-20.156416-23.25504a58.8288 58.8288 0 0 0-44.488704-20.314112H190.8224c-23.922688 0-43.384832 19.462144-43.384832 43.384832v44.509184c0 5.656576 4.583424 10.24 10.24 10.24s10.24-4.583424 10.24-10.24V132.984832c0-12.630016 10.274816-22.904832 22.904832-22.904832h141.617152c11.14112 0 21.716992 4.827136 29.011968 13.246464l20.156416 23.25504a58.826752 58.826752 0 0 0 44.486656 20.31616h328.011776c3.84 0 6.9632 3.1232 6.9632 6.961152v72.935424H347.385856c-23.92064 0-43.382784 19.462144-43.382784 43.384832v349.433856c0 37.517312-30.523392 68.042752-68.042752 68.042752-37.51936 0-68.0448-30.523392-68.0448-68.042752V275.468288c0-5.656576-4.583424-10.24-10.24-10.24s-10.24 4.583424-10.24 10.24v364.146688c0 48.812032 39.712768 88.522752 88.5248 88.522752h140.150784c5.656576 0 10.24-4.583424 10.24-10.24s-4.583424-10.24-10.24-10.24h-83.585024c0.284672-0.237568 0.55296-0.49152 0.833536-0.733184 0.821248-0.702464 1.640448-1.409024 2.435072-2.14016 0.41984-0.385024 0.825344-0.786432 1.236992-1.179648a82.944 82.944 0 0 0 2.013184-1.968128c0.434176-0.44032 0.854016-0.892928 1.28-1.34144 0.612352-0.649216 1.21856-1.304576 1.81248-1.972224a92.86656 92.86656 0 0 0 4.118528-4.990976c0.540672-0.70656 1.067008-1.42336 1.585152-2.146304 0.364544-0.507904 0.733184-1.01376 1.087488-1.529856 0.528384-0.765952 1.03424-1.548288 1.536-2.330624 0.315392-0.49152 0.641024-0.978944 0.948224-1.476608 0.559104-0.909312 1.089536-1.835008 1.615872-2.7648 0.221184-0.391168 0.456704-0.772096 0.671744-1.16736a88.22784 88.22784 0 0 0 2.074624-4.038656c0.151552-0.315392 0.284672-0.641024 0.434176-0.958464 0.497664-1.06496 0.98304-2.134016 1.437696-3.219456 0.217088-0.518144 0.413696-1.048576 0.620544-1.572864 0.3584-0.90112 0.712704-1.804288 1.040384-2.719744 0.210944-0.587776 0.403456-1.183744 0.602112-1.775616 0.290816-0.872448 0.577536-1.746944 0.841728-2.629632 0.186368-0.620544 0.360448-1.247232 0.53248-1.87392a87.627776 87.627776 0 0 0 1.675264-7.2704c0.118784-0.641024 0.239616-1.284096 0.346112-1.929216 0.1536-0.944128 0.282624-1.896448 0.407552-2.848768 0.079872-0.618496 0.167936-1.232896 0.23552-1.85344 0.114688-1.058816 0.196608-2.127872 0.272384-3.196928 0.038912-0.524288 0.09216-1.04448 0.120832-1.572864 0.086016-1.601536 0.137216-3.213312 0.137216-4.837376V290.179072c0-12.630016 10.274816-22.904832 22.902784-22.904832h501.731328c3.84 0 6.9632 3.1232 6.9632 6.961152V639.61088c0 37.517312-30.523392 68.042752-68.0448 68.042752-5.656576 0-10.24 4.583424-10.24 10.24s4.583424 10.24 10.24 10.24c48.812032 0 88.5248-39.71072 88.5248-88.522752V274.23744c0.006144-15.130624-12.306432-27.441152-27.439104-27.441152z" fill="#1C1D21" p-id="19372"></path></svg>